# xmcd
# 
# Track frame offsets:
#     150
#     13275
#     26812
#     41512
#     51900
#     59662
#     71250
#     78337
#     85275
#     99110
#     111372
#     121725
#     133650
#     143100
#     152660
#     166575
#     177375
#     189450
#     197362
#     208912
#     221737
#     229575
#     244425
#     254212
#     266845
#     280687
#     293025
#     305475
#     316312
# 
# Disc length: 4473
# 
# Revision: 2
# Processed by: cddbd v1.5.2PL0 Copyright (c) Steve Scherf et al.
# Submitted via: fre:ac v1.0.17
# 
DISCID=ae11771d
DTITLE=American Folk - The Young Fogies
DYEAR=0
DGENRE=Folk
TTITLE0=Then It Won't Hurt No More
TTITLE1=I Want You So Near
TTITLE2=Po' Boy
TTITLE3=Sheep Shell Corn By The Rattling Of His Horn
TTITLE4=Betty Likens
TTITLE5=Take Me Back To My Old North Carolina Home
TTITLE6=Off To California
TTITLE7=Good Indian/Cutting At The Point
TTITLE8=Weary Blues From Waiting
TTITLE9=Dubuque
TTITLE10=The Bible's True
TTITLE11=The Shopping Song
TTITLE12=Raincrow Bill (Goes Up Cripple Creek)
TTITLE13=Boys, Them Buzzards Are Flying
TTITLE14=Drunken Hiccups/The Lost Child
TTITLE15=Bonaparte's Retreat
TTITLE16=Mes Parents Veulent Plus Me Voir
TTITLE17=Homage A Nos Racines
TTITLE18=Skunk In A Collard Patch
TTITLE19=Oklahoma Rooster
TTITLE20=Blind Steer In A Mudhole
TTITLE21=Visits
TTITLE22=4 And 20 Blackbirds Dancing On A Fawnskin
TTITLE23=Old Bangum
TTITLE24=Chinkapin Hunting
TTITLE25=The Glory In The Meetinghouse
TTITLE26=Every Breath You Take
TTITLE27=Oh Death
TTITLE28=Sail Away/George Booker
EXTD=
EXTT0=
EXTT1=
EXTT2=
EXTT3=
EXTT4=
EXTT5=
EXTT6=
EXTT7=
EXTT8=
EXTT9=
EXTT10=
EXTT11=
EXTT12=
EXTT13=
EXTT14=
EXTT15=
EXTT16=
EXTT17=
EXTT18=
EXTT19=
EXTT20=
EXTT21=
EXTT22=
EXTT23=
EXTT24=
EXTT25=
EXTT26=
EXTT27=
EXTT28=
PLAYORDER=
